<mxfile host="app.diagrams.net" modified="2023-04-22T00:49:34.254Z" agent="Mozilla/5.0 (X11; Linux x86_64) AppleWebKit/537.36 (KHTML, like Gecko) Chrome/111.0.0.0 Safari/537.36" etag="4OYSlVd9tBDJC6Vu8R1L" version="21.2.1" type="device">
  <diagram name="Página-1" id="AepbXCgjnHJDwi-GlF7M">
    <mxGraphModel dx="1195" dy="658" grid="1" gridSize="10" guides="1" tooltips="1" connect="1" arrows="1" fold="1" page="1" pageScale="1" pageWidth="1169" pageHeight="827" math="0" shadow="0">
      <root>
        <mxCell id="0" />
        <mxCell id="1" parent="0" />
        <mxCell id="-r5CqJ_Ao2iyUbAnQ0un-1" style="edgeStyle=orthogonalEdgeStyle;rounded=0;orthogonalLoop=1;jettySize=auto;html=1;exitX=0.5;exitY=1;exitDx=0;exitDy=0;entryX=0;entryY=0.5;entryDx=0;entryDy=0;" edge="1" parent="1" source="afxZPn47sews8vrAxT-C-2" target="afxZPn47sews8vrAxT-C-46">
          <mxGeometry relative="1" as="geometry" />
        </mxCell>
        <mxCell id="afxZPn47sews8vrAxT-C-2" value="PRODUCTO" style="rounded=0;whiteSpace=wrap;html=1;" parent="1" vertex="1">
          <mxGeometry x="274" y="105" width="120" height="60" as="geometry" />
        </mxCell>
        <mxCell id="afxZPn47sews8vrAxT-C-19" style="edgeStyle=orthogonalEdgeStyle;rounded=0;orthogonalLoop=1;jettySize=auto;html=1;entryX=0;entryY=0.5;entryDx=0;entryDy=0;" parent="1" source="afxZPn47sews8vrAxT-C-12" target="afxZPn47sews8vrAxT-C-2" edge="1">
          <mxGeometry relative="1" as="geometry" />
        </mxCell>
        <mxCell id="afxZPn47sews8vrAxT-C-12" value="CÓDIGO (50 caracteres - CHAR)" style="ellipse;whiteSpace=wrap;html=1;fontSize=12;shadow=0;gradientColor=none;fillStyle=cross-hatch;fillColor=#000000;" parent="1" vertex="1">
          <mxGeometry x="110" y="102.5" width="100" height="65" as="geometry" />
        </mxCell>
        <mxCell id="afxZPn47sews8vrAxT-C-23" style="edgeStyle=orthogonalEdgeStyle;rounded=0;orthogonalLoop=1;jettySize=auto;html=1;entryX=0.5;entryY=0;entryDx=0;entryDy=0;" parent="1" source="afxZPn47sews8vrAxT-C-14" target="afxZPn47sews8vrAxT-C-2" edge="1">
          <mxGeometry relative="1" as="geometry" />
        </mxCell>
        <mxCell id="afxZPn47sews8vrAxT-C-14" value="NOMBRE&lt;br&gt;(50 caracteres - CHAR)" style="ellipse;whiteSpace=wrap;html=1;fontSize=12;" parent="1" vertex="1">
          <mxGeometry x="286" width="96" height="50" as="geometry" />
        </mxCell>
        <mxCell id="afxZPn47sews8vrAxT-C-22" style="edgeStyle=orthogonalEdgeStyle;rounded=0;orthogonalLoop=1;jettySize=auto;html=1;entryX=0;entryY=0.133;entryDx=0;entryDy=0;entryPerimeter=0;" parent="1" source="afxZPn47sews8vrAxT-C-15" target="afxZPn47sews8vrAxT-C-2" edge="1">
          <mxGeometry relative="1" as="geometry" />
        </mxCell>
        <mxCell id="afxZPn47sews8vrAxT-C-15" value="CATEGORÍA (50 caracteres - CHAR)" style="ellipse;whiteSpace=wrap;html=1;fontSize=12;" parent="1" vertex="1">
          <mxGeometry x="140" y="30" width="90" height="60" as="geometry" />
        </mxCell>
        <mxCell id="afxZPn47sews8vrAxT-C-24" style="edgeStyle=orthogonalEdgeStyle;rounded=0;orthogonalLoop=1;jettySize=auto;html=1;entryX=1;entryY=0.25;entryDx=0;entryDy=0;" parent="1" source="afxZPn47sews8vrAxT-C-16" target="afxZPn47sews8vrAxT-C-2" edge="1">
          <mxGeometry relative="1" as="geometry" />
        </mxCell>
        <mxCell id="afxZPn47sews8vrAxT-C-16" value="DETALLE&lt;br&gt;(50 caracteres - CHAR)" style="ellipse;whiteSpace=wrap;html=1;fontSize=12;" parent="1" vertex="1">
          <mxGeometry x="440" y="30" width="100" height="60" as="geometry" />
        </mxCell>
        <mxCell id="afxZPn47sews8vrAxT-C-28" style="edgeStyle=orthogonalEdgeStyle;rounded=0;orthogonalLoop=1;jettySize=auto;html=1;entryX=1;entryY=0.5;entryDx=0;entryDy=0;" parent="1" source="afxZPn47sews8vrAxT-C-17" target="afxZPn47sews8vrAxT-C-2" edge="1">
          <mxGeometry relative="1" as="geometry" />
        </mxCell>
        <mxCell id="afxZPn47sews8vrAxT-C-17" value="PRECIO&lt;br&gt;(15 caracteres - INT)" style="ellipse;whiteSpace=wrap;html=1;fontSize=12;" parent="1" vertex="1">
          <mxGeometry x="460" y="107.5" width="90" height="55" as="geometry" />
        </mxCell>
        <mxCell id="afxZPn47sews8vrAxT-C-61" style="edgeStyle=orthogonalEdgeStyle;rounded=0;orthogonalLoop=1;jettySize=auto;html=1;" parent="1" source="afxZPn47sews8vrAxT-C-29" target="afxZPn47sews8vrAxT-C-60" edge="1">
          <mxGeometry relative="1" as="geometry">
            <Array as="points">
              <mxPoint x="334" y="560" />
              <mxPoint x="334" y="560" />
            </Array>
          </mxGeometry>
        </mxCell>
        <mxCell id="afxZPn47sews8vrAxT-C-69" style="edgeStyle=orthogonalEdgeStyle;rounded=0;orthogonalLoop=1;jettySize=auto;html=1;" parent="1" source="afxZPn47sews8vrAxT-C-29" target="afxZPn47sews8vrAxT-C-68" edge="1">
          <mxGeometry relative="1" as="geometry" />
        </mxCell>
        <mxCell id="dvAhUXR_tMsbIHyLgRzu-29" style="edgeStyle=orthogonalEdgeStyle;rounded=0;orthogonalLoop=1;jettySize=auto;html=1;entryX=0.5;entryY=1;entryDx=0;entryDy=0;" parent="1" source="afxZPn47sews8vrAxT-C-29" target="dvAhUXR_tMsbIHyLgRzu-23" edge="1">
          <mxGeometry relative="1" as="geometry" />
        </mxCell>
        <mxCell id="dvAhUXR_tMsbIHyLgRzu-33" style="edgeStyle=orthogonalEdgeStyle;rounded=0;orthogonalLoop=1;jettySize=auto;html=1;" parent="1" source="afxZPn47sews8vrAxT-C-29" target="dvAhUXR_tMsbIHyLgRzu-32" edge="1">
          <mxGeometry relative="1" as="geometry" />
        </mxCell>
        <mxCell id="dvAhUXR_tMsbIHyLgRzu-37" style="edgeStyle=orthogonalEdgeStyle;rounded=0;orthogonalLoop=1;jettySize=auto;html=1;entryX=1;entryY=0.5;entryDx=0;entryDy=0;" parent="1" source="afxZPn47sews8vrAxT-C-29" target="dvAhUXR_tMsbIHyLgRzu-34" edge="1">
          <mxGeometry relative="1" as="geometry">
            <Array as="points">
              <mxPoint x="310" y="553" />
            </Array>
          </mxGeometry>
        </mxCell>
        <mxCell id="afxZPn47sews8vrAxT-C-29" value="APLICACIÓN" style="rounded=0;whiteSpace=wrap;html=1;" parent="1" vertex="1">
          <mxGeometry x="274" y="455" width="120" height="60" as="geometry" />
        </mxCell>
        <mxCell id="afxZPn47sews8vrAxT-C-67" style="edgeStyle=orthogonalEdgeStyle;rounded=0;orthogonalLoop=1;jettySize=auto;html=1;" parent="1" source="afxZPn47sews8vrAxT-C-30" target="afxZPn47sews8vrAxT-C-51" edge="1">
          <mxGeometry relative="1" as="geometry" />
        </mxCell>
        <mxCell id="-r5CqJ_Ao2iyUbAnQ0un-4" style="edgeStyle=orthogonalEdgeStyle;rounded=0;orthogonalLoop=1;jettySize=auto;html=1;exitX=0.5;exitY=1;exitDx=0;exitDy=0;entryX=0.5;entryY=0;entryDx=0;entryDy=0;" edge="1" parent="1" source="afxZPn47sews8vrAxT-C-30" target="afxZPn47sews8vrAxT-C-74">
          <mxGeometry relative="1" as="geometry" />
        </mxCell>
        <mxCell id="afxZPn47sews8vrAxT-C-30" value="FACTURA" style="rounded=0;whiteSpace=wrap;html=1;" parent="1" vertex="1">
          <mxGeometry x="540" y="330" width="120" height="60" as="geometry" />
        </mxCell>
        <mxCell id="afxZPn47sews8vrAxT-C-44" style="edgeStyle=orthogonalEdgeStyle;rounded=0;orthogonalLoop=1;jettySize=auto;html=1;" parent="1" source="afxZPn47sews8vrAxT-C-31" target="afxZPn47sews8vrAxT-C-43" edge="1">
          <mxGeometry relative="1" as="geometry" />
        </mxCell>
        <mxCell id="dvAhUXR_tMsbIHyLgRzu-13" style="edgeStyle=orthogonalEdgeStyle;rounded=0;orthogonalLoop=1;jettySize=auto;html=1;entryX=0.5;entryY=1;entryDx=0;entryDy=0;" parent="1" source="afxZPn47sews8vrAxT-C-31" target="dvAhUXR_tMsbIHyLgRzu-14" edge="1">
          <mxGeometry relative="1" as="geometry">
            <mxPoint x="70" y="285" as="targetPoint" />
          </mxGeometry>
        </mxCell>
        <mxCell id="afxZPn47sews8vrAxT-C-31" value="CONTROL DE STOCK" style="rounded=0;whiteSpace=wrap;html=1;" parent="1" vertex="1">
          <mxGeometry x="10" y="330" width="120" height="60" as="geometry" />
        </mxCell>
        <mxCell id="dvAhUXR_tMsbIHyLgRzu-17" style="edgeStyle=orthogonalEdgeStyle;rounded=0;orthogonalLoop=1;jettySize=auto;html=1;entryX=1;entryY=0.5;entryDx=0;entryDy=0;" parent="1" source="afxZPn47sews8vrAxT-C-32" target="dvAhUXR_tMsbIHyLgRzu-16" edge="1">
          <mxGeometry relative="1" as="geometry" />
        </mxCell>
        <mxCell id="dvAhUXR_tMsbIHyLgRzu-20" style="edgeStyle=orthogonalEdgeStyle;rounded=0;orthogonalLoop=1;jettySize=auto;html=1;entryX=0.5;entryY=0;entryDx=0;entryDy=0;" parent="1" source="afxZPn47sews8vrAxT-C-32" target="dvAhUXR_tMsbIHyLgRzu-19" edge="1">
          <mxGeometry relative="1" as="geometry" />
        </mxCell>
        <mxCell id="dvAhUXR_tMsbIHyLgRzu-21" style="edgeStyle=orthogonalEdgeStyle;rounded=0;orthogonalLoop=1;jettySize=auto;html=1;entryX=0;entryY=0.5;entryDx=0;entryDy=0;" parent="1" source="afxZPn47sews8vrAxT-C-32" target="dvAhUXR_tMsbIHyLgRzu-18" edge="1">
          <mxGeometry relative="1" as="geometry" />
        </mxCell>
        <mxCell id="afxZPn47sews8vrAxT-C-32" value="USUARIO" style="rounded=0;whiteSpace=wrap;html=1;fillColor=#dae8fc;strokeColor=#6c8ebf;" parent="1" vertex="1">
          <mxGeometry x="274" y="716" width="120" height="60" as="geometry" />
        </mxCell>
        <mxCell id="dvAhUXR_tMsbIHyLgRzu-9" style="edgeStyle=orthogonalEdgeStyle;rounded=0;orthogonalLoop=1;jettySize=auto;html=1;entryX=0.5;entryY=1;entryDx=0;entryDy=0;" parent="1" source="afxZPn47sews8vrAxT-C-33" target="dvAhUXR_tMsbIHyLgRzu-1" edge="1">
          <mxGeometry relative="1" as="geometry" />
        </mxCell>
        <mxCell id="-r5CqJ_Ao2iyUbAnQ0un-12" style="edgeStyle=orthogonalEdgeStyle;rounded=0;orthogonalLoop=1;jettySize=auto;html=1;entryX=0;entryY=0.5;entryDx=0;entryDy=0;" edge="1" parent="1" source="afxZPn47sews8vrAxT-C-33" target="dvAhUXR_tMsbIHyLgRzu-3">
          <mxGeometry relative="1" as="geometry" />
        </mxCell>
        <mxCell id="afxZPn47sews8vrAxT-C-33" value="RECIBO" style="rounded=0;whiteSpace=wrap;html=1;" parent="1" vertex="1">
          <mxGeometry x="870" y="330" width="120" height="60" as="geometry" />
        </mxCell>
        <mxCell id="afxZPn47sews8vrAxT-C-45" style="edgeStyle=orthogonalEdgeStyle;rounded=0;orthogonalLoop=1;jettySize=auto;html=1;entryX=0.5;entryY=1;entryDx=0;entryDy=0;" parent="1" source="afxZPn47sews8vrAxT-C-43" target="afxZPn47sews8vrAxT-C-2" edge="1">
          <mxGeometry relative="1" as="geometry" />
        </mxCell>
        <mxCell id="afxZPn47sews8vrAxT-C-43" value="&lt;font style=&quot;font-size: 10px;&quot;&gt;CONFORMADO &lt;br&gt;POR&lt;/font&gt;" style="rhombus;whiteSpace=wrap;html=1;verticalAlign=middle;" parent="1" vertex="1">
          <mxGeometry x="140" y="200" width="100" height="90" as="geometry" />
        </mxCell>
        <mxCell id="-r5CqJ_Ao2iyUbAnQ0un-2" style="edgeStyle=orthogonalEdgeStyle;rounded=0;orthogonalLoop=1;jettySize=auto;html=1;exitX=0.5;exitY=1;exitDx=0;exitDy=0;entryX=0;entryY=0.75;entryDx=0;entryDy=0;" edge="1" parent="1" source="afxZPn47sews8vrAxT-C-46" target="afxZPn47sews8vrAxT-C-30">
          <mxGeometry relative="1" as="geometry" />
        </mxCell>
        <mxCell id="afxZPn47sews8vrAxT-C-46" value="&lt;font style=&quot;font-size: 10px;&quot;&gt;CONFORMA&lt;br&gt;&lt;/font&gt;" style="rhombus;whiteSpace=wrap;html=1;verticalAlign=middle;" parent="1" vertex="1">
          <mxGeometry x="430" y="200" width="100" height="90" as="geometry" />
        </mxCell>
        <mxCell id="afxZPn47sews8vrAxT-C-53" style="edgeStyle=orthogonalEdgeStyle;rounded=0;orthogonalLoop=1;jettySize=auto;html=1;" parent="1" source="afxZPn47sews8vrAxT-C-51" target="afxZPn47sews8vrAxT-C-33" edge="1">
          <mxGeometry relative="1" as="geometry" />
        </mxCell>
        <mxCell id="afxZPn47sews8vrAxT-C-51" value="GENERA" style="rhombus;whiteSpace=wrap;html=1;verticalAlign=middle;" parent="1" vertex="1">
          <mxGeometry x="730" y="325" width="80" height="70" as="geometry" />
        </mxCell>
        <mxCell id="-r5CqJ_Ao2iyUbAnQ0un-7" value="" style="edgeStyle=orthogonalEdgeStyle;rounded=0;orthogonalLoop=1;jettySize=auto;html=1;" edge="1" parent="1" target="dvAhUXR_tMsbIHyLgRzu-1">
          <mxGeometry relative="1" as="geometry">
            <mxPoint x="930" y="330" as="sourcePoint" />
          </mxGeometry>
        </mxCell>
        <mxCell id="afxZPn47sews8vrAxT-C-55" value="1:1" style="text;html=1;strokeColor=none;fillColor=none;align=center;verticalAlign=middle;whiteSpace=wrap;rounded=0;" parent="1" vertex="1">
          <mxGeometry x="750" y="305" width="40" height="20" as="geometry" />
        </mxCell>
        <mxCell id="afxZPn47sews8vrAxT-C-57" value="n:1" style="text;html=1;strokeColor=none;fillColor=none;align=center;verticalAlign=middle;whiteSpace=wrap;rounded=0;" parent="1" vertex="1">
          <mxGeometry x="460" y="180" width="40" height="20" as="geometry" />
        </mxCell>
        <mxCell id="afxZPn47sews8vrAxT-C-59" value="1:n" style="text;html=1;strokeColor=none;fillColor=none;align=center;verticalAlign=middle;whiteSpace=wrap;rounded=0;" parent="1" vertex="1">
          <mxGeometry x="170" y="180" width="40" height="20" as="geometry" />
        </mxCell>
        <mxCell id="afxZPn47sews8vrAxT-C-62" style="edgeStyle=orthogonalEdgeStyle;rounded=0;orthogonalLoop=1;jettySize=auto;html=1;entryX=0.5;entryY=0;entryDx=0;entryDy=0;" parent="1" source="afxZPn47sews8vrAxT-C-60" target="afxZPn47sews8vrAxT-C-32" edge="1">
          <mxGeometry relative="1" as="geometry" />
        </mxCell>
        <mxCell id="afxZPn47sews8vrAxT-C-60" value="USA" style="rhombus;whiteSpace=wrap;html=1;verticalAlign=middle;" parent="1" vertex="1">
          <mxGeometry x="294" y="600" width="80" height="70" as="geometry" />
        </mxCell>
        <mxCell id="afxZPn47sews8vrAxT-C-64" value="1:n" style="text;html=1;strokeColor=none;fillColor=none;align=center;verticalAlign=middle;whiteSpace=wrap;rounded=0;" parent="1" vertex="1">
          <mxGeometry x="370" y="625" width="40" height="20" as="geometry" />
        </mxCell>
        <mxCell id="afxZPn47sews8vrAxT-C-70" style="edgeStyle=orthogonalEdgeStyle;rounded=0;orthogonalLoop=1;jettySize=auto;html=1;entryX=0.5;entryY=1;entryDx=0;entryDy=0;" parent="1" source="afxZPn47sews8vrAxT-C-68" target="afxZPn47sews8vrAxT-C-31" edge="1">
          <mxGeometry relative="1" as="geometry" />
        </mxCell>
        <mxCell id="afxZPn47sews8vrAxT-C-68" value="TIENE" style="rhombus;whiteSpace=wrap;html=1;verticalAlign=middle;" parent="1" vertex="1">
          <mxGeometry x="30" y="450" width="80" height="70" as="geometry" />
        </mxCell>
        <mxCell id="afxZPn47sews8vrAxT-C-72" value="1:1" style="text;html=1;strokeColor=none;fillColor=none;align=center;verticalAlign=middle;whiteSpace=wrap;rounded=0;" parent="1" vertex="1">
          <mxGeometry x="50" y="520" width="40" height="20" as="geometry" />
        </mxCell>
        <mxCell id="-r5CqJ_Ao2iyUbAnQ0un-6" style="edgeStyle=orthogonalEdgeStyle;rounded=0;orthogonalLoop=1;jettySize=auto;html=1;exitX=0;exitY=0.5;exitDx=0;exitDy=0;entryX=1;entryY=0.5;entryDx=0;entryDy=0;" edge="1" parent="1" source="afxZPn47sews8vrAxT-C-74" target="afxZPn47sews8vrAxT-C-29">
          <mxGeometry relative="1" as="geometry" />
        </mxCell>
        <mxCell id="afxZPn47sews8vrAxT-C-74" value="CREADA" style="rhombus;whiteSpace=wrap;html=1;verticalAlign=middle;" parent="1" vertex="1">
          <mxGeometry x="560" y="450" width="80" height="70" as="geometry" />
        </mxCell>
        <mxCell id="afxZPn47sews8vrAxT-C-76" value="1:n" style="text;html=1;strokeColor=none;fillColor=none;align=center;verticalAlign=middle;whiteSpace=wrap;rounded=0;" parent="1" vertex="1">
          <mxGeometry x="640" y="475" width="40" height="20" as="geometry" />
        </mxCell>
        <mxCell id="dvAhUXR_tMsbIHyLgRzu-1" value="ID Recibo(auto-incrementable)" style="ellipse;whiteSpace=wrap;html=1;fontSize=12;fillStyle=cross-hatch;fillColor=#000000;" parent="1" vertex="1">
          <mxGeometry x="880" y="200" width="100" height="65" as="geometry" />
        </mxCell>
        <mxCell id="dvAhUXR_tMsbIHyLgRzu-3" value="&lt;div&gt;Dirección&lt;/div&gt;&lt;div&gt;(STRING)&lt;/div&gt;" style="ellipse;whiteSpace=wrap;html=1;fontSize=12;" parent="1" vertex="1">
          <mxGeometry x="1060" y="332.5" width="90" height="55" as="geometry" />
        </mxCell>
        <mxCell id="dvAhUXR_tMsbIHyLgRzu-14" value="CODIGO(50 caracteres - CHAR)" style="ellipse;whiteSpace=wrap;html=1;fontSize=12;" parent="1" vertex="1">
          <mxGeometry x="22.5" y="217.5" width="95" height="65" as="geometry" />
        </mxCell>
        <mxCell id="dvAhUXR_tMsbIHyLgRzu-16" value="&lt;div&gt;ID USUARIO&lt;br&gt;&lt;/div&gt;&lt;div&gt;(auto-incrementable)&lt;/div&gt;" style="ellipse;whiteSpace=wrap;html=1;fontSize=12;fillColor=#000000;fillStyle=cross-hatch;" parent="1" vertex="1">
          <mxGeometry x="117.5" y="714.25" width="97.5" height="63.5" as="geometry" />
        </mxCell>
        <mxCell id="dvAhUXR_tMsbIHyLgRzu-18" value="&lt;div&gt;NOMBRE&lt;br&gt;&lt;/div&gt;&lt;div&gt;(20 caracteres&amp;nbsp; -CHAR)&lt;/div&gt;" style="ellipse;whiteSpace=wrap;html=1;fontSize=12;" parent="1" vertex="1">
          <mxGeometry x="450" y="718.5" width="90" height="55" as="geometry" />
        </mxCell>
        <mxCell id="dvAhUXR_tMsbIHyLgRzu-19" value="&lt;div&gt;CONTRASEÑA&lt;br&gt;&lt;/div&gt;&lt;div&gt;(50 caracteres - CHAR)&lt;/div&gt;" style="ellipse;whiteSpace=wrap;html=1;fontSize=12;" parent="1" vertex="1">
          <mxGeometry x="281" y="810" width="106" height="65" as="geometry" />
        </mxCell>
        <mxCell id="dvAhUXR_tMsbIHyLgRzu-23" value="&lt;div&gt;ID USUARIO&lt;br&gt;&lt;/div&gt;&lt;div&gt;(auto-incrementable)&lt;/div&gt;" style="ellipse;whiteSpace=wrap;html=1;fontSize=12;fillColor=#000000;fillStyle=hatch;" parent="1" vertex="1">
          <mxGeometry x="230" y="350.5" width="97.5" height="63.5" as="geometry" />
        </mxCell>
        <mxCell id="dvAhUXR_tMsbIHyLgRzu-32" value="CÓDIGO (50 caracteres - CHAR)" style="ellipse;whiteSpace=wrap;html=1;fontSize=12;shadow=0;gradientColor=none;fillStyle=hatch;fillColor=#000000;" parent="1" vertex="1">
          <mxGeometry x="340" y="349" width="100" height="65" as="geometry" />
        </mxCell>
        <mxCell id="dvAhUXR_tMsbIHyLgRzu-34" value="ID Recibo(auto-incrementable)" style="ellipse;whiteSpace=wrap;html=1;fontSize=12;fillStyle=hatch;fillColor=#000000;" parent="1" vertex="1">
          <mxGeometry x="160" y="520" width="100" height="65" as="geometry" />
        </mxCell>
        <mxCell id="-r5CqJ_Ao2iyUbAnQ0un-9" value="" style="rounded=0;whiteSpace=wrap;html=1;fillColor=none;" vertex="1" parent="1">
          <mxGeometry x="880" y="340" width="100" height="40" as="geometry" />
        </mxCell>
      </root>
    </mxGraphModel>
  </diagram>
</mxfile>
